<?xml version="1.0" standalone="no"?>
<!DOCTYPE svg PUBLIC "-//W3C//DTD SVG 20010904//EN"
 "http://www.w3.org/TR/2001/REC-SVG-20010904/DTD/svg10.dtd">
<svg version="1.0" xmlns="http://www.w3.org/2000/svg"
 width="225.000000pt" height="225.000000pt" viewBox="0 0 225.000000 225.000000"
 preserveAspectRatio="xMidYMid meet">
<metadata>
Created by potrace 1.16, written by Peter Selinger 2001-2019
</metadata>
<g transform="translate(0.000000,225.000000) scale(0.100000,-0.100000)"
fill="#000000" stroke="none">
<path d="M920 2091 c-243 -54 -455 -194 -603 -398 -51 -70 -123 -224 -149
-319 -18 -67 -22 -105 -22 -249 0 -198 14 -265 89 -422 99 -211 257 -368 468
-468 157 -75 224 -89 422 -89 198 0 265 14 422 89 211 100 369 257 468 468 75
157 89 224 89 422 0 198 -14 265 -89 422 -99 211 -257 368 -468 468 -142 68
-225 87 -397 91 -115 3 -162 0 -230 -15z m110 -794 c64 -141 119 -260 122
-263 3 -2 52 111 108 253 57 142 106 261 110 266 3 4 76 6 161 5 l154 -3 -52
-51 -53 -50 0 -331 0 -331 45 -40 c25 -22 45 -45 45 -51 0 -8 -63 -11 -215
-11 -118 0 -215 3 -215 7 0 4 23 30 50 58 l50 51 -2 249 -3 250 -120 -305
c-99 -250 -124 -305 -140 -305 -15 0 -47 61 -157 300 -75 165 -140 305 -142
310 -2 6 -5 -90 -5 -211 l-1 -221 65 -79 c35 -44 65 -85 65 -91 0 -10 -38 -13
-159 -13 -88 0 -162 3 -165 8 -2 4 18 34 46 67 94 112 88 88 88 368 0 168 -4
255 -11 270 -7 12 -34 48 -60 80 -27 32 -49 63 -49 68 0 6 66 8 161 7 l162 -3
117 -258z"/>
</g>
</svg>
